<svg xmlns="http://www.w3.org/2000/svg" width="900" height="520">
<rect width="100%" height="100%" fill="white"/>
<text x="240" y="40" font-size="24" font-family="Arial" font-weight="700" fill="#1f2937">Figure 1. Category Distribution of 1,000 Raw Reviews</text>
<line x1="240.0" y1="70" x2="240.0" y2="450" stroke="#e5e7eb" stroke-width="1"/>
<text x="240.0" y="475" text-anchor="middle" font-size="12" font-family="Arial" fill="#6b7280">0</text>
<line x1="395.0" y1="70" x2="395.0" y2="450" stroke="#e5e7eb" stroke-width="1"/>
<text x="395.0" y="475" text-anchor="middle" font-size="12" font-family="Arial" fill="#6b7280">43</text>
<line x1="550.0" y1="70" x2="550.0" y2="450" stroke="#e5e7eb" stroke-width="1"/>
<text x="550.0" y="475" text-anchor="middle" font-size="12" font-family="Arial" fill="#6b7280">86</text>
<line x1="705.0" y1="70" x2="705.0" y2="450" stroke="#e5e7eb" stroke-width="1"/>
<text x="705.0" y="475" text-anchor="middle" font-size="12" font-family="Arial" fill="#6b7280">128</text>
<line x1="860.0" y1="70" x2="860.0" y2="450" stroke="#e5e7eb" stroke-width="1"/>
<text x="860.0" y="475" text-anchor="middle" font-size="12" font-family="Arial" fill="#6b7280">171</text>
<text x="230" y="87.7" text-anchor="end" font-size="14" font-family="Arial" fill="#111827">平板</text>
<rect x="240" y="70.0" width="620.0" height="25.4" rx="4" fill="#2563eb"/>
<text x="868.0" y="87.7" font-size="13" font-family="Arial" fill="#111827">171</text>
<text x="230" y="127.1" text-anchor="end" font-size="14" font-family="Arial" fill="#111827">酒店</text>
<rect x="240" y="109.4" width="601.9" height="25.4" rx="4" fill="#2563eb"/>
<text x="849.9" y="127.1" font-size="13" font-family="Arial" fill="#111827">166</text>
<text x="230" y="166.5" text-anchor="end" font-size="14" font-family="Arial" fill="#111827">洗发水</text>
<rect x="240" y="148.8" width="580.1" height="25.4" rx="4" fill="#2563eb"/>
<text x="828.1" y="166.5" font-size="13" font-family="Arial" fill="#111827">160</text>
<text x="230" y="205.9" text-anchor="end" font-size="14" font-family="Arial" fill="#111827">水果</text>
<rect x="240" y="188.2" width="565.6" height="25.4" rx="4" fill="#2563eb"/>
<text x="813.6" y="205.9" font-size="13" font-family="Arial" fill="#111827">156</text>
<text x="230" y="245.3" text-anchor="end" font-size="14" font-family="Arial" fill="#111827">衣服</text>
<rect x="240" y="227.6" width="536.6" height="25.4" rx="4" fill="#2563eb"/>
<text x="784.6" y="245.3" font-size="13" font-family="Arial" fill="#111827">148</text>
<text x="230" y="284.7" text-anchor="end" font-size="14" font-family="Arial" fill="#111827">计算机</text>
<rect x="240" y="267.0" width="210.3" height="25.4" rx="4" fill="#2563eb"/>
<text x="458.3" y="284.7" font-size="13" font-family="Arial" fill="#111827">58</text>
<text x="230" y="324.1" text-anchor="end" font-size="14" font-family="Arial" fill="#111827">书籍</text>
<rect x="240" y="306.4" width="174.0" height="25.4" rx="4" fill="#2563eb"/>
<text x="422.0" y="324.1" font-size="13" font-family="Arial" fill="#111827">48</text>
<text x="230" y="363.5" text-anchor="end" font-size="14" font-family="Arial" fill="#111827">蒙牛</text>
<rect x="240" y="345.8" width="152.3" height="25.4" rx="4" fill="#2563eb"/>
<text x="400.3" y="363.5" font-size="13" font-family="Arial" fill="#111827">42</text>
<text x="230" y="402.9" text-anchor="end" font-size="14" font-family="Arial" fill="#111827">手机</text>
<rect x="240" y="385.2" width="134.2" height="25.4" rx="4" fill="#2563eb"/>
<text x="382.2" y="402.9" font-size="13" font-family="Arial" fill="#111827">37</text>
<text x="230" y="442.3" text-anchor="end" font-size="14" font-family="Arial" fill="#111827">热水器</text>
<rect x="240" y="424.6" width="50.8" height="25.4" rx="4" fill="#2563eb"/>
<text x="298.8" y="442.3" font-size="13" font-family="Arial" fill="#111827">14</text>
</svg>