<svg xmlns="http://www.w3.org/2000/svg" width="900" height="520">
<rect width="100%" height="100%" fill="white"/>
<text x="240" y="40" font-size="24" font-family="Arial" font-weight="700" fill="#1f2937">Figure 2. Sentiment Distribution in 200-Review Gold Evaluation</text>
<line x1="240.0" y1="70" x2="240.0" y2="450" stroke="#e5e7eb" stroke-width="1"/>
<text x="240.0" y="475" text-anchor="middle" font-size="12" font-family="Arial" fill="#6b7280">0</text>
<line x1="395.0" y1="70" x2="395.0" y2="450" stroke="#e5e7eb" stroke-width="1"/>
<text x="395.0" y="475" text-anchor="middle" font-size="12" font-family="Arial" fill="#6b7280">24</text>
<line x1="550.0" y1="70" x2="550.0" y2="450" stroke="#e5e7eb" stroke-width="1"/>
<text x="550.0" y="475" text-anchor="middle" font-size="12" font-family="Arial" fill="#6b7280">48</text>
<line x1="705.0" y1="70" x2="705.0" y2="450" stroke="#e5e7eb" stroke-width="1"/>
<text x="705.0" y="475" text-anchor="middle" font-size="12" font-family="Arial" fill="#6b7280">73</text>
<line x1="860.0" y1="70" x2="860.0" y2="450" stroke="#e5e7eb" stroke-width="1"/>
<text x="860.0" y="475" text-anchor="middle" font-size="12" font-family="Arial" fill="#6b7280">97</text>
<text x="230" y="133.7" text-anchor="end" font-size="14" font-family="Arial" fill="#111827">positive</text>
<rect x="240" y="70.0" width="485.8" height="117.3" rx="4" fill="#059669"/>
<text x="733.8" y="133.7" font-size="13" font-family="Arial" fill="#111827">76</text>
<text x="230" y="265.0" text-anchor="end" font-size="14" font-family="Arial" fill="#111827">neutral</text>
<rect x="240" y="201.3" width="172.6" height="117.3" rx="4" fill="#059669"/>
<text x="420.6" y="265.0" font-size="13" font-family="Arial" fill="#111827">27</text>
<text x="230" y="396.3" text-anchor="end" font-size="14" font-family="Arial" fill="#111827">negative</text>
<rect x="240" y="332.7" width="620.0" height="117.3" rx="4" fill="#059669"/>
<text x="868.0" y="396.3" font-size="13" font-family="Arial" fill="#111827">97</text>
</svg>