<svg xmlns="http://www.w3.org/2000/svg" width="900" height="520">
<rect width="100%" height="100%" fill="white"/>
<text x="240" y="40" font-size="24" font-family="Arial" font-weight="700" fill="#1f2937">Figure 3. Top Pain Points in Negative Reviews</text>
<line x1="240.0" y1="70" x2="240.0" y2="450" stroke="#e5e7eb" stroke-width="1"/>
<text x="240.0" y="475" text-anchor="middle" font-size="12" font-family="Arial" fill="#6b7280">0</text>
<line x1="395.0" y1="70" x2="395.0" y2="450" stroke="#e5e7eb" stroke-width="1"/>
<text x="395.0" y="475" text-anchor="middle" font-size="12" font-family="Arial" fill="#6b7280">4</text>
<line x1="550.0" y1="70" x2="550.0" y2="450" stroke="#e5e7eb" stroke-width="1"/>
<text x="550.0" y="475" text-anchor="middle" font-size="12" font-family="Arial" fill="#6b7280">9</text>
<line x1="705.0" y1="70" x2="705.0" y2="450" stroke="#e5e7eb" stroke-width="1"/>
<text x="705.0" y="475" text-anchor="middle" font-size="12" font-family="Arial" fill="#6b7280">14</text>
<line x1="860.0" y1="70" x2="860.0" y2="450" stroke="#e5e7eb" stroke-width="1"/>
<text x="860.0" y="475" text-anchor="middle" font-size="12" font-family="Arial" fill="#6b7280">18</text>
<text x="230" y="92.6" text-anchor="end" font-size="14" font-family="Arial" fill="#111827">质量差</text>
<rect x="240" y="70.0" width="620.0" height="35.2" rx="4" fill="#dc2626"/>
<text x="868.0" y="92.6" font-size="13" font-family="Arial" fill="#111827">18</text>
<text x="230" y="141.9" text-anchor="end" font-size="14" font-family="Arial" fill="#111827">尺寸不符</text>
<rect x="240" y="119.2" width="206.7" height="35.2" rx="4" fill="#dc2626"/>
<text x="454.7" y="141.9" font-size="13" font-family="Arial" fill="#111827">6</text>
<text x="230" y="191.1" text-anchor="end" font-size="14" font-family="Arial" fill="#111827">质量不符</text>
<rect x="240" y="168.5" width="68.9" height="35.2" rx="4" fill="#dc2626"/>
<text x="316.9" y="191.1" font-size="13" font-family="Arial" fill="#111827">2</text>
<text x="230" y="240.4" text-anchor="end" font-size="14" font-family="Arial" fill="#111827">疑似假货</text>
<rect x="240" y="217.8" width="68.9" height="35.2" rx="4" fill="#dc2626"/>
<text x="316.9" y="240.4" font-size="13" font-family="Arial" fill="#111827">2</text>
<text x="230" y="289.6" text-anchor="end" font-size="14" font-family="Arial" fill="#111827">客服态度差</text>
<rect x="240" y="267.0" width="68.9" height="35.2" rx="4" fill="#dc2626"/>
<text x="316.9" y="289.6" font-size="13" font-family="Arial" fill="#111827">2</text>
<text x="230" y="338.9" text-anchor="end" font-size="14" font-family="Arial" fill="#111827">客服处理不当</text>
<rect x="240" y="316.2" width="68.9" height="35.2" rx="4" fill="#dc2626"/>
<text x="316.9" y="338.9" font-size="13" font-family="Arial" fill="#111827">2</text>
<text x="230" y="388.1" text-anchor="end" font-size="14" font-family="Arial" fill="#111827">尺寸小</text>
<rect x="240" y="365.5" width="68.9" height="35.2" rx="4" fill="#dc2626"/>
<text x="316.9" y="388.1" font-size="13" font-family="Arial" fill="#111827">2</text>
<text x="230" y="437.4" text-anchor="end" font-size="14" font-family="Arial" fill="#111827">包装破损</text>
<rect x="240" y="414.8" width="68.9" height="35.2" rx="4" fill="#dc2626"/>
<text x="316.9" y="437.4" font-size="13" font-family="Arial" fill="#111827">2</text>
</svg>